#N canvas 566 140 597 369 10;
#X obj 33 96 knob 32 32 0 1 0 0 c1 c1_in empty 0 -8 0 8 -262144 -1
-1 0 1;
#X text 39 67 c1;
#X obj 72 96 knob 32 32 0 1 0 0 c2 c2_in empty 0 -8 0 8 -262144 -1
-1 0 1;
#X obj 111 96 knob 32 32 0 1 0 0 c3 c3_in empty 0 -8 0 8 -262144 -1
-1 0 1;
#X obj 148 96 knob 32 32 0 1 0 0 c4 c4_in empty 0 -8 0 8 -262144 -1
-1 0 1;
#X obj 187 96 knob 32 32 0 1 0 0 c5 c5_in empty 0 -8 0 8 -262144 -1
-1 0 1;
#X obj 225 96 knob 32 32 0 1 0 0 c6 c6_in empty 0 -8 0 8 -262144 -1
-1 0 1;
#X obj 263 96 knob 32 32 0 1 0 0 c7 c7_in empty 0 -8 0 8 -262144 -1
-1 0 1;
#X obj 302 96 knob 32 32 0 1 0 0 c8 c8_in empty 0 -8 0 8 -262144 -1
-1 0 1;
#X text 77 67 c2;
#X text 117 67 c3;
#X text 155 67 c4;
#X text 193 67 c5;
#X text 231 67 c6;
#X text 269 67 c7;
#X text 309 67 c8;
#N canvas 726 379 450 300 input 0;
#X obj 13 19 ctlin 74;
#X obj 13 61 s c1_in;
#X obj 13 40 / 127;
#X obj 71 40 / 127;
#X obj 71 19 ctlin 71;
#X obj 71 61 s c2_in;
#X obj 128 40 / 127;
#X obj 128 19 ctlin 2;
#X obj 128 61 s c3_in;
#X obj 184 40 / 127;
#X obj 184 19 ctlin 3;
#X obj 184 61 s c4_in;
#X obj 13 104 / 127;
#X obj 71 104 / 127;
#X obj 128 104 / 127;
#X obj 184 104 / 127;
#X obj 13 125 s c5_in;
#X obj 71 125 s c6_in;
#X obj 128 125 s c7_in;
#X obj 184 125 s c8_in;
#X obj 13 83 ctlin 82;
#X obj 71 83 ctlin 83;
#X obj 128 83 ctlin 28;
#X obj 184 83 ctlin 29;
#X connect 0 0 2 0;
#X connect 2 0 1 0;
#X connect 3 0 5 0;
#X connect 4 0 3 0;
#X connect 6 0 8 0;
#X connect 7 0 6 0;
#X connect 9 0 11 0;
#X connect 10 0 9 0;
#X connect 12 0 16 0;
#X connect 13 0 17 0;
#X connect 14 0 18 0;
#X connect 15 0 19 0;
#X connect 20 0 12 0;
#X connect 21 0 13 0;
#X connect 22 0 14 0;
#X connect 23 0 15 0;
#X restore 465 31 pd input;
#N canvas 821 225 450 496 synth 0;
#X obj 29 9 r midi-note;
#X obj 29 169 osc~;
#X obj 29 52 line~;
#X msg 29 30 \$1 10;
#X obj 30 216 *~;
#X obj 29 320 dac~;
#X obj 29 237 *~ 0.4;
#N canvas 253 436 168 193 master 0;
#X obj 31 128 outlet~;
#X msg 31 74 \$1 100;
#X obj 31 102 line~;
#X obj 31 50 r c8;
#X connect 1 0 2 0;
#X connect 2 0 0 0;
#X connect 3 0 1 0;
#X restore 44 195 pd master;
#X obj 29 73 mtof~;
#X obj 29 146 +~;
#X obj 35 99 s~ freq;
#N canvas 246 348 450 300 fm 0;
#X obj 34 245 outlet~;
#X obj 35 145 osc~;
#X msg 36 45 \$1 10;
#X obj 36 65 line~;
#X obj 36 107 *~;
#X obj 51 85 r~ freq;
#X obj 36 185 *~;
#X obj 81 136 r~ freq;
#X obj 81 165 *~ 0.4;
#X obj 36 23 r c6;
#X connect 1 0 6 0;
#X connect 2 0 3 0;
#X connect 3 0 4 0;
#X connect 4 0 1 0;
#X connect 5 0 4 1;
#X connect 6 0 0 0;
#X connect 7 0 8 0;
#X connect 8 0 6 1;
#X connect 9 0 2 0;
#X restore 43 123 pd fm;
#N canvas 177 346 450 300 delay 0;
#X obj 29 31 inlet~;
#X obj 31 231 outlet~;
#X obj 65 121 *~;
#X obj 95 -11 r c7;
#X msg 95 41 \$1 10;
#X obj 94 67 line~;
#X obj 23 89 r~ fb;
#X obj 65 153 delwrite~ d1 370;
#X obj 66 184 delread~ d1 370;
#X obj 80 209 s~ fb;
#X obj 93 16 * 0.6;
#X connect 0 0 2 0;
#X connect 2 0 7 0;
#X connect 3 0 10 0;
#X connect 4 0 5 0;
#X connect 5 0 2 1;
#X connect 6 0 2 0;
#X connect 8 0 1 0;
#X connect 8 0 9 0;
#X connect 10 0 4 0;
#X restore 63 281 pd delay;
#X connect 0 0 3 0;
#X connect 1 0 4 0;
#X connect 2 0 8 0;
#X connect 3 0 2 0;
#X connect 4 0 6 0;
#X connect 6 0 5 0;
#X connect 6 0 12 0;
#X connect 6 0 5 1;
#X connect 7 0 4 1;
#X connect 8 0 9 0;
#X connect 8 0 10 0;
#X connect 9 0 1 0;
#X connect 11 0 9 1;
#X connect 12 0 5 1;
#X restore 465 115 pd synth;
#N canvas 280 256 639 472 notes 0;
#X msg 391 29 \; scale 0 0 2 3 5 7 8 10 12;
#X obj 391 6 loadbang;
#X obj 391 70 loadbang;
#X msg 391 92 \; chord1 0 0 3 7 10 12 15 19 22 24;
#X obj 391 126 loadbang;
#X obj 480 6 table scale 8;
#X obj 474 70 table chord1 9;
#X obj 474 125 table chord2 9;
#X msg 391 147 \; chord2 0 0 4 7 11 12 16 19 23 24;
#X obj 389 188 loadbang;
#X obj 472 188 table chord3 9;
#X msg 389 211 \; chord3 0 0 3 6 9 12 15 18 21 24;
#X obj 389 250 loadbang;
#X obj 472 250 table chord4 9;
#N canvas 789 406 450 300 root 0;
#X obj 30 180 outlet;
#X obj 30 151 tabread scale;
#X obj 30 23 r c1;
#X obj 30 107 *;
#X obj 45 64 arraysize scale;
#X obj 45 44 loadbang;
#X obj 30 128 i;
#X obj 45 85 - 1;
#X connect 1 0 0 0;
#X connect 2 0 3 0;
#X connect 3 0 6 0;
#X connect 4 0 7 0;
#X connect 5 0 4 0;
#X connect 6 0 1 0;
#X connect 7 0 3 1;
#X restore 21 87 pd root;
#X obj 21 246 s midi-note;
#X obj 21 222 + 48;
#X obj 21 195 +;
#N canvas 906 256 450 300 arpeggiator 0;
#X obj 36 274 outlet;
#X obj 36 72 metro 250;
#X obj 36 189 % 9;
#X obj 36 142 f;
#X obj 64 141 + 1;
#X obj 36 28 loadbang;
#X msg 36 50 1;
#X obj 36 244 tabread chord1;
#N canvas 913 440 450 300 set-chord 0;
#X obj 33 158 outlet;
#X obj 33 46 * 4;
#X obj 33 66 i;
#X msg 33 134 set chord\$1;
#X obj 33 26 r c2;
#X obj 33 101 max 1;
#X connect 1 0 2 0;
#X connect 2 0 5 0;
#X connect 3 0 0 0;
#X connect 4 0 1 0;
#X connect 5 0 3 0;
#X restore 149 219 pd set-chord;
#N canvas 400 189 450 300 arpeggio-size 0;
#X obj 24 136 outlet;
#X obj 24 57 r c3;
#X obj 24 104 i;
#X obj 24 81 * 8;
#X connect 1 0 3 0;
#X connect 2 0 0 0;
#X connect 3 0 2 0;
#X restore 51 166 pd arpeggio-size;
#N canvas 353 403 450 300 arpeggio-speed 0;
#X obj 38 116 outlet;
#X obj 39 43 r c4;
#X obj 39 66 * -200;
#X obj 39 86 + 205;
#X connect 1 0 2 0;
#X connect 2 0 3 0;
#X connect 3 0 0 0;
#X restore 102 32 pd arpeggio-speed;
#X floatatom 107 55 5 0 0 0 - - -;
#N canvas 318 428 679 300 direction 0;
#X obj 218 195 outlet;
#X obj 218 14 r c5;
#X obj 218 56 i;
#X obj 361 44 loadbang;
#X obj 218 80 tabread jumps;
#X msg 363 70 \; jumps 0 -4 -3 -2 -1 -1 -1 -1 0 1 1 1 1 2 3 4;
#X obj 361 20 table jumps 15;
#X obj 218 34 * 15;
#X connect 1 0 7 0;
#X connect 2 0 4 0;
#X connect 3 0 5 0;
#X connect 4 0 0 0;
#X connect 7 0 2 0;
#X restore 79 116 pd direction;
#X connect 1 0 3 0;
#X connect 2 0 7 0;
#X connect 3 0 4 0;
#X connect 3 0 2 0;
#X connect 4 0 3 1;
#X connect 5 0 6 0;
#X connect 6 0 1 0;
#X connect 7 0 0 0;
#X connect 8 0 7 0;
#X connect 9 0 2 1;
#X connect 10 0 1 1;
#X connect 10 0 11 0;
#X connect 12 0 4 1;
#X restore 36 137 pd arpeggiator;
#X obj 36 160 t b f;
#X msg 389 273 \; chord4 0 0 4 8 11 12 16 20 23 24;
#X connect 1 0 0 0;
#X connect 2 0 3 0;
#X connect 4 0 8 0;
#X connect 9 0 11 0;
#X connect 12 0 20 0;
#X connect 14 0 17 0;
#X connect 16 0 15 0;
#X connect 17 0 16 0;
#X connect 18 0 19 0;
#X connect 19 0 17 0;
#X connect 19 1 17 1;
#X restore 465 57 pd notes;
