#N canvas 3 55 429 331 10;
#X obj 186 11 notein;
#X floatatom 186 57 5 0 0 0 - - -;
#X text 223 56 <- current note;
#X obj 186 81 s note;
#X obj 68 31 loadbang;
#X msg 68 55 48;
#X obj 68 78 s min;
#X obj 129 32 loadbang;
#X obj 129 79 s min;
#X msg 129 57 72;
#N canvas 663 369 450 300 cook-midi 0;
#X obj 18 82 maxlib/scale 48 72 0 1;
#X obj 18 9 r note;
#X obj 43 33 r min;
#X obj 69 54 r max;
#X floatatom 18 105 5 0 0 0 - - -;
#X obj 18 129 s pos;
#X connect 0 0 4 0;
#X connect 1 0 0 0;
#X connect 2 0 0 1;
#X connect 3 0 0 2;
#X connect 4 0 5 0;
#X restore 330 17 pd cook-midi;
#X text 6 7 Settings;
#X obj 6 137 s on;
#X obj 6 114 tgl 15 0 empty empty empty 17 7 0 10 -262144 -1 -1 0 1
;
#X obj 9 198 s mode;
#X obj 9 172 tgl 15 0 empty empty empty 17 7 0 10 -262144 -1 -1 0 1
;
#X text 26 112 <-- Sound on or off;
#X text 30 169 <-- key triggering mode;
#X text 58 191 on - lifting keys cuts the sound;
#X text 58 211 off - sound is constant;
#N canvas 528 152 774 577 audio 0;
#N canvas 0 0 450 300 (subpatch) 0;
#X array sample 150951 float 2;
#X coords 0 1 150951 -1 200 140 1;
#X restore 462 36 graph;
#X obj 467 356 soundfiler;
#X msg 467 239 read -resize ./beat.wav sample;
#X obj 38 188 phasor~;
#X obj 467 384 s file-loaded;
#X obj 467 212 loadbang;
#X obj 39 259 *~;
#X obj 54 215 r file-loaded;
#X obj 54 236 arraysize sample;
#X obj 39 281 tabread~ sample;
#X obj 39 525 dac~;
#X obj 38 58 arraysize sample;
#X obj 38 23 bng 15 250 50 0 empty empty empty 17 7 0 10 -262144 -1
-1;
#X obj 38 79 expr 1 / ($f1/44100);
#X obj 77 121 r pos;
#X obj 38 453 *~;
#X obj 53 430 line~;
#X msg 53 410 \$1 10;
#X obj 53 389 r on;
#X obj 77 161 spigot;
#X obj 110 141 r vel;
#N canvas 748 429 450 300 mode 0;
#X obj 24 19 inlet~;
#X obj 24 266 outlet~;
#X obj 25 244 *~;
#X obj 260 156 r mode;
#X msg 39 104 1;
#X obj 39 173 multiplex;
#X obj 39 56 r mode;
#X msg 39 193 \$1 10;
#X obj 39 216 line~;
#X obj 39 80 del 1;
#X obj 97 16 r vel;
#X obj 96 126 f;
#X obj 124 127 +;
#X msg 96 57 -1;
#X obj 96 37 sel 0;
#X msg 125 57 1;
#X obj 339 19 r vel;
#X msg 338 60 -1;
#X obj 338 40 sel 0;
#X msg 367 60 1;
#X obj 338 86 t b f;
#X obj 312 118 print;
#X obj 362 121 print;
#X obj 96 83 t b b b f;
#X text 160 85 ugly hack;
#X obj 95 148 > 0;
#X connect 0 0 2 0;
#X connect 2 0 1 0;
#X connect 3 0 5 2;
#X connect 4 0 5 0;
#X connect 5 0 7 0;
#X connect 6 0 9 0;
#X connect 7 0 8 0;
#X connect 8 0 2 1;
#X connect 9 0 4 0;
#X connect 10 0 14 0;
#X connect 11 0 12 0;
#X connect 11 0 25 0;
#X connect 12 0 11 1;
#X connect 13 0 23 0;
#X connect 14 0 13 0;
#X connect 14 1 15 0;
#X connect 15 0 23 0;
#X connect 16 0 18 0;
#X connect 17 0 20 0;
#X connect 18 0 17 0;
#X connect 18 1 19 0;
#X connect 19 0 20 0;
#X connect 20 0 21 0;
#X connect 20 1 22 0;
#X connect 23 0 11 0;
#X connect 23 1 11 0;
#X connect 23 2 11 0;
#X connect 23 3 12 1;
#X connect 25 0 5 1;
#X restore 38 346 pd mode;
#X msg 488 329 read -resize \$1 sample;
#X obj 488 285 r newfile;
#X obj 488 307 openpanel;
#X connect 1 0 4 0;
#X connect 2 0 1 0;
#X connect 3 0 6 0;
#X connect 5 0 2 0;
#X connect 6 0 9 0;
#X connect 7 0 8 0;
#X connect 8 0 6 1;
#X connect 9 0 21 0;
#X connect 11 0 13 0;
#X connect 12 0 11 0;
#X connect 13 0 3 0;
#X connect 14 0 19 0;
#X connect 15 0 10 0;
#X connect 15 0 10 1;
#X connect 16 0 15 1;
#X connect 17 0 16 0;
#X connect 18 0 17 0;
#X connect 19 0 3 1;
#X connect 20 0 19 1;
#X connect 21 0 15 0;
#X connect 22 0 1 0;
#X connect 23 0 24 0;
#X connect 24 0 22 0;
#X restore 330 38 pd audio;
#X obj 202 33 s vel;
#X obj 6 78 s newfile;
#X obj 6 53 bng 15 250 50 0 empty empty empty 17 7 0 10 -262144 -1
-1;
#X connect 0 0 1 0;
#X connect 0 1 21 0;
#X connect 1 0 3 0;
#X connect 4 0 5 0;
#X connect 5 0 6 0;
#X connect 7 0 9 0;
#X connect 9 0 8 0;
#X connect 13 0 12 0;
#X connect 15 0 14 0;
#X connect 23 0 22 0;
