#N canvas 33 173 576 283 10;
#X obj 16 26 input-midi;
#X obj 409 51 tgl 50 0 empty empty empty 17 7 0 10 -262144 -1 -1 0
1;
#X msg 409 105 \$1 300;
#X obj 409 125 line~;
#X obj 332 148 *~;
#X obj 332 189 dac~;
#X obj 332 168 *~ 0.2;
#X obj 409 32 r tap;
#X text 17 98 Tap action turns sound on or off;
#X text 18 112 Z up/down action is volume;
#N canvas 833 346 450 300 vol_z 0;
#X obj 23 31 inlet~;
#X obj 23 179 outlet~;
#X obj 24 149 *~;
#X obj 42 122 line~;
#X msg 42 102 \$1 10;
#X obj 42 72 r z;
#X connect 0 0 2 0;
#X connect 2 0 1 0;
#X connect 3 0 2 1;
#X connect 4 0 3 0;
#X connect 5 0 4 0;
#X restore 332 90 pd vol_z;
#N canvas 640 283 450 379 synth_xy 1;
#X obj 304 349 outlet~;
#X obj 304 326 osc~;
#X obj 33 3 r x;
#X obj 33 49 line~;
#X msg 33 26 \$1 100;
#X obj 304 300 +~;
#X obj 360 147 *~;
#X obj 375 125 line~;
#X msg 375 105 \$1 100;
#X obj 360 167 osc~;
#X obj 375 61 r y;
#X obj 32 135 s~ pitch;
#X obj 305 248 r~ pitch;
#X obj 361 33 r~ pitch;
#X obj 375 82 * 0.4;
#X obj 359 249 *~;
#X obj 374 192 r~ pitch;
#X obj 374 218 *~ 0.4;
#X obj 33 69 *~ 24;
#X obj 33 91 +~ 60;
#X obj 33 111 mtof~;
#X connect 1 0 0 0;
#X connect 2 0 4 0;
#X connect 3 0 18 0;
#X connect 4 0 3 0;
#X connect 5 0 1 0;
#X connect 6 0 9 0;
#X connect 7 0 6 1;
#X connect 8 0 7 0;
#X connect 9 0 15 0;
#X connect 10 0 14 0;
#X connect 12 0 5 0;
#X connect 13 0 6 0;
#X connect 14 0 8 0;
#X connect 15 0 5 1;
#X connect 16 0 17 0;
#X connect 17 0 15 1;
#X connect 18 0 19 0;
#X connect 19 0 20 0;
#X connect 20 0 11 0;
#X restore 333 32 pd synth_xy;
#X text 19 126 X left/right is pitch;
#X text 19 141 Z is the modulation speed;
#X connect 1 0 2 0;
#X connect 2 0 3 0;
#X connect 3 0 4 1;
#X connect 4 0 6 0;
#X connect 6 0 5 0;
#X connect 6 0 5 1;
#X connect 7 0 1 0;
#X connect 10 0 4 0;
#X connect 11 0 10 0;
