#N canvas 165 171 712 342 10;
#X obj 163 205 vsl 50 50 0 1 0 0 empty empty empty 0 -9 0 10 -262144
-1 -1 2450 1;
#X obj 218 205 vsl 50 50 0 1 0 0 empty empty empty 0 -9 0 10 -262144
-1 -1 2450 1;
#X obj 106 203 hsl 50 50 0 1 0 0 empty empty empty -2 -8 0 10 -262144
-1 -1 2488 1;
#X obj 103 286 s x;
#X obj 163 286 s y;
#X obj 218 286 s z;
#X obj 271 203 bng 50 250 50 0 empty empty empty 17 7 0 10 -262144
-1 -1;
#X obj 271 285 s tap;
#X obj 325 203 tgl 50 0 empty empty empty 17 7 0 10 -262144 -1 -1 0
1;
#X obj 325 285 s touch;
#X floatatom 93 64 5 0 0 0 - - -;
#X floatatom 131 62 5 0 0 0 - - -;
#X obj 92 31 ctlin;
#X floatatom 196 68 5 0 0 0 - - -;
#X obj 103 154 / 128;
#X obj 103 133 ctlin 10 1;
#X obj 170 133 ctlin 13 1;
#X obj 170 154 / 128;
#X obj 237 154 / 128;
#X obj 237 133 ctlin 14 1;
#X obj 334 83 notein;
#X obj 334 108 stripnote;
#X obj 334 129 sel 66;
#X obj 402 80 notein;
#X obj 402 101 pack f f;
#X obj 402 121 route 60;
#X msg 402 164 0;
#X msg 433 165 1;
#X obj 402 142 sel 0;
#X text 285 218 tap;
#X text 334 219 touch;
#X text 125 218 x;
#X text 182 215 y;
#X text 237 215 z;
#X connect 0 0 4 0;
#X connect 1 0 5 0;
#X connect 2 0 3 0;
#X connect 6 0 7 0;
#X connect 8 0 9 0;
#X connect 12 0 10 0;
#X connect 12 1 11 0;
#X connect 12 2 13 0;
#X connect 14 0 2 0;
#X connect 15 0 14 0;
#X connect 16 0 17 0;
#X connect 17 0 0 0;
#X connect 18 0 1 0;
#X connect 19 0 18 0;
#X connect 20 0 21 0;
#X connect 20 1 21 1;
#X connect 21 0 22 0;
#X connect 22 0 6 0;
#X connect 23 0 24 0;
#X connect 23 1 24 1;
#X connect 24 0 25 0;
#X connect 25 0 28 0;
#X connect 26 0 8 0;
#X connect 27 0 8 0;
#X connect 28 0 26 0;
#X connect 28 1 27 0;
#X coords 0 -1 1 1 300 60 1 100 200;
